<svg xmlns="http://www.w3.org/2000/svg" viewBox="0 0 23 23">
  <path fill="#FFD442" d="M0 11.5a11.5 11.5 0 1023 0 11.5 11.5 0 00-23 0z" />
  <path fill="#594504" d="M11.5 14.6c1.8 0 3.3.6 4.4 1.8.3.3.3.8-.1 1.1-.3.3-.9.2-1.1-.1-.8-.8-1.8-1.3-3.2-1.3s-2.4.4-3.2 1.3c-.3.3-.8.4-1.1.1-.3-.3-.4-.8-.1-1.1a5.7 5.7 0 014.4-1.8zM18 7.2c.4-.2.9-.1 1.1.3s.1.9-.3 1.1l-.4.2-1 .6-.2.1c.3.3.5.7.5 1.2 0 .8-.7 1.5-1.5 1.5s-1.4-.6-1.5-1.3c-1 .3-2 0-2.7-1-.3-.4-.2-.9.2-1.2.2-.2.8-.1 1 .3.3.5.7.5 1.2.2L16.5 8l1-.6.5-.2zm-13.3 0l.4.2 1 .6 2.1 1.2c.6.3 1 .2 1.3-.2.3-.4.8-.5 1.1-.2.4.2.5.8.2 1.1-.6.9-1.5 1.3-2.4 1.1-.1.7-.8 1.2-1.5 1.2-.8 0-1.5-.7-1.5-1.5 0-.4.2-.8.4-1.1a.8.8 0 01-.4-.2l-1-.5-.5-.3c-.4-.2-.5-.7-.3-1.1s.7-.6 1.1-.3z"/>
</svg>
