<svg xmlns="http://www.w3.org/2000/svg" viewBox="0 0 23 23">
  <path fill="#FFD442" d="M0 11.5a11.5 11.5 0 1023 0 11.5 11.5 0 00-23 0z"/>
  <path fill="#594504" d="M11.5 19.2c3.3 0 4.6-2.2 4.6-3.6s-9.2-1.4-9.2 0 1.3 3.6 4.6 3.6z"/>
  <path fill="#F4606E" d="M14.8 13c1.4-.5 4-1.5 4.4-3.1 0 0 .7-2-1.4-2.5-.6-.2-1 0-1.6.3-.3-.5-.6-.9-1.1-1C13 6 12.5 8.2 12.6 8c-.5 1.6 1.2 3.7 2.2 4.9zM8 13c1-1.2 2.7-3.3 2.3-4.9 0 0-.4-2-2.6-1.4-.5.1-.8.5-1.1 1-.6-.3-1-.5-1.5-.3C2.9 8 3.6 10 3.6 9.9c.4 1.6 3 2.6 4.4 3z"/>
</svg>
