<svg xmlns="http://www.w3.org/2000/svg" viewBox="0 0 23 23">
  <path fill="#FFD442" d="M0 11.5a11.5 11.5 0 1023 0 11.5 11.5 0 00-23 0z"/>
  <path fill="#594504" d="M11.5 14.7c1.3.4 2.5.9 3.5 1.6.4.2.4.7.1 1a1 1 0 01-1.2.2 9 9 0 00-2.9-1.3c-.8-.2-1.3 0-1.7.6-.2.3-.8.5-1.2.3-.4-.2-.6-.7-.3-1 .8-1.3 2.1-1.8 3.7-1.4zM7 9.2a1.5 1.5 0 110 3 1.5 1.5 0 010-3zm9.2 0a1.5 1.5 0 110 3 1.5 1.5 0 010-3zm-.3-2.6c.3-1 1 .2 1.9.5.9.2 2-.5 1.8.5a2 2 0 01-2.3 1.3 2 2 0 01-1.4-2.3zm-9.3-.8C7.4 5.4 8 4.1 8.3 5c.3.8 0 2-1 2.5a2 2 0 01-2.5-.9c-.4-.9.8-.4 1.7-.8z"/>
</svg>
